<svg width="24" height="24" viewBox="0 0 24 24" fill="none" xmlns="http://www.w3.org/2000/svg">
<path d="M12.75 3.5C12.75 3.08579 12.4142 2.75 12 2.75C11.5858 2.75 11.25 3.08579 11.25 3.5V18.6896L6.46002 13.8997C6.16712 13.6068 5.69225 13.6068 5.39936 13.8997C5.10646 14.1926 5.10646 14.6674 5.39936 14.9603L11.4694 21.0303C11.61 21.171 11.8008 21.25 11.9997 21.25C12.1986 21.25 12.3894 21.171 12.53 21.0303L18.6 14.9603C18.8929 14.6674 18.8929 14.1926 18.6 13.8997C18.3071 13.6068 17.8322 13.6068 17.5394 13.8997L12.75 18.689V3.5Z" fill="currentColor"/>
</svg>
