<svg width="24" height="24" viewBox="0 0 24 24" fill="none" xmlns="http://www.w3.org/2000/svg">
<path d="M17.5389 10.1003C17.8318 10.3932 18.3066 10.3932 18.5995 10.1003C18.8924 9.80744 18.8924 9.33256 18.5995 9.03967L12.5295 2.96967C12.3889 2.82902 12.1981 2.75 11.9992 2.75C11.8003 2.75 11.6095 2.82902 11.4689 2.96967L5.39887 9.03967C5.10598 9.33256 5.10598 9.80744 5.39887 10.1003C5.69176 10.3932 6.16664 10.3932 6.45953 10.1003L11.2489 5.31097L11.2489 20.5C11.2489 20.9142 11.5847 21.25 11.9989 21.25C12.4131 21.25 12.7489 20.9142 12.7489 20.5L12.7489 5.31035L17.5389 10.1003Z" fill="currentColor"/>
</svg>
